<?xml version="1.0" encoding="UTF-8"?>
<!DOCTYPE svg PUBLIC "-//W3C//DTD SVG 1.1//EN" "http://www.w3.org/Graphics/SVG/1.1/DTD/svg11.dtd">
<!-- Creator: CorelDRAW 2019 (64 Bit) -->
<svg xmlns="http://www.w3.org/2000/svg" xml:space="preserve" width="28px" height="19px" version="1.1" style="shape-rendering:geometricPrecision; text-rendering:geometricPrecision; image-rendering:optimizeQuality; fill-rule:evenodd; clip-rule:evenodd"
viewBox="0 0 28.24 18.63"
 xmlns:xlink="http://www.w3.org/1999/xlink">
 <defs>
  <style type="text/css">
   <![CDATA[
    .fil0 {fill:white}
   ]]>
  </style>
 </defs>
 <g id="Camada_x0020_1">
  <metadata id="CorelCorpID_0Corel-Layer"/>
  <path class="fil0" d="M14.12 8.37l6.32 -8.22c0.07,-0.1 0.18,-0.15 0.3,-0.15l7.13 0c0.14,0 0.27,0.08 0.33,0.21 0.07,0.13 0.05,0.28 -0.04,0.4l-13.74 17.87c-0.07,0.1 -0.18,0.15 -0.3,0.15 -0.12,0 -0.22,-0.05 -0.3,-0.15l-13.74 -17.87c-0.09,-0.12 -0.1,-0.27 -0.04,-0.4 0.07,-0.13 0.19,-0.21 0.34,-0.21l7.12 0c0.13,0 0.23,0.05 0.3,0.15l6.32 8.22z"/>
 </g>
</svg>
