<?xml version="1.0" encoding="UTF-8"?>
<!DOCTYPE svg PUBLIC "-//W3C//DTD SVG 1.1//EN" "http://www.w3.org/Graphics/SVG/1.1/DTD/svg11.dtd">
<!-- Creator: CorelDRAW 2019 (64 Bit) -->
<svg xmlns="http://www.w3.org/2000/svg" xml:space="preserve" width="50px" height="35px" version="1.1" style="shape-rendering:geometricPrecision; text-rendering:geometricPrecision; image-rendering:optimizeQuality; fill-rule:evenodd; clip-rule:evenodd"
viewBox="0 0 50 35"
 xmlns:xlink="http://www.w3.org/1999/xlink">
 <defs>
  <style type="text/css">
   <![CDATA[
    .fil0 {fill:#FF3300}
    .fil1 {fill:white}
   ]]>
  </style>
 </defs>
 <g id="Camada_x0020_1">
  <metadata id="CorelCorpID_0Corel-Layer"/>
  <g id="_1035216128">
   <rect class="fil0" x="1.5" y="2.29" width="47.5" height="30.38"/>
   <g>
    <path class="fil1" d="M6.8 19.01c0.19,0.13 0.41,0.24 0.63,0.31 0.22,0.07 0.45,0.1 0.68,0.1 0.23,0 0.47,-0.03 0.69,-0.1 0.22,-0.07 0.44,-0.18 0.63,-0.31 0.2,-0.14 0.37,-0.31 0.51,-0.5 0.14,-0.19 0.25,-0.4 0.32,-0.62 0.07,-0.22 0.1,-0.44 0.1,-0.67 0,-0.23 -0.03,-0.46 -0.1,-0.68 -0.07,-0.22 -0.18,-0.43 -0.32,-0.62 -0.14,-0.19 -0.31,-0.36 -0.51,-0.5 -0.19,-0.13 -0.41,-0.24 -0.63,-0.31 -0.22,-0.07 -0.46,-0.1 -0.69,-0.1 -0.23,0 -0.46,0.03 -0.68,0.1 -0.22,0.07 -0.44,0.18 -0.63,0.31 -0.19,0.14 -0.37,0.31 -0.5,0.5 -0.14,0.19 -0.25,0.4 -0.32,0.62 -0.07,0.23 -0.11,0.45 -0.11,0.68 0,0.23 0.04,0.45 0.11,0.67 0.07,0.22 0.18,0.43 0.32,0.62 0.13,0.19 0.31,0.36 0.5,0.5l0 0z"/>
    <polygon class="fil1" points="11.67,6.4 4.56,6.4 8.12,14.33 11.67,6.4 "/>
    <path class="fil1" d="M13.92 25.52c0,0.22 -0.04,0.43 -0.13,0.63 -0.08,0.2 -0.2,0.38 -0.36,0.53 -0.15,0.15 -0.34,0.27 -0.54,0.36 -0.2,0.08 -0.42,0.12 -0.64,0.12l-0.33 0 0 0c-0.22,0 -0.44,-0.04 -0.64,-0.12 -0.2,-0.09 -0.39,-0.21 -0.54,-0.36 -0.16,-0.15 -0.28,-0.33 -0.36,-0.53 -0.09,-0.2 -0.13,-0.41 -0.13,-0.63l0 0 0 -3.72 -3.85 0 0 2.81c0,0.57 0.12,1.14 0.34,1.66 0.22,0.53 0.55,1.02 0.96,1.42 0.41,0.4 0.9,0.73 1.44,0.95 0.54,0.21 1.12,0.33 1.7,0.33l2.37 0 0 0c0.58,0 1.17,-0.12 1.7,-0.33 0.54,-0.22 1.03,-0.55 1.44,-0.95 0.41,-0.4 0.74,-0.89 0.96,-1.42 0.22,-0.52 0.34,-1.09 0.34,-1.66l0 -18.19 -3.73 0 0 19.1 0 0z"/>
    <path class="fil1" d="M42.34 21.8l0 3.3 0 0c0,0.22 -0.05,0.43 -0.13,0.63 -0.08,0.2 -0.21,0.38 -0.36,0.53 -0.15,0.16 -0.34,0.28 -0.54,0.36 -0.2,0.08 -0.42,0.12 -0.64,0.12l-0.34 0 0 0c-0.21,0 -0.43,-0.04 -0.63,-0.12 -0.21,-0.08 -0.39,-0.2 -0.55,-0.36 -0.15,-0.15 -0.27,-0.33 -0.36,-0.53 -0.08,-0.2 -0.12,-0.41 -0.12,-0.63l0 0 0 -18.68 -3.73 0 0 22.08 10.99 0 0 -6.7 -3.59 0 0 0z"/>
    <path class="fil1" d="M31.83 18.5c-0.19,-0.44 -0.46,-0.84 -0.79,-1.15 -0.32,-0.32 -0.7,-0.55 -1.1,-0.69 0.34,-0.17 0.65,-0.38 0.93,-0.64 0.29,-0.27 0.54,-0.58 0.7,-0.93 0.17,-0.35 0.26,-0.74 0.26,-1.13l0 0 0 -4.02 0 0c0,-0.47 -0.09,-0.93 -0.27,-1.36 -0.18,-0.43 -0.45,-0.82 -0.78,-1.15 -0.34,-0.33 -0.74,-0.59 -1.17,-0.77 -0.44,-0.17 -0.91,-0.27 -1.38,-0.27l-7.42 0 0 22.11 7.7 0 0 0c0.47,0 0.95,-0.09 1.38,-0.27 0.44,-0.18 0.83,-0.44 1.17,-0.77 0.33,-0.33 0.6,-0.72 0.78,-1.15 0.18,-0.43 0.27,-0.89 0.27,-1.35 0,-1.7 0,-3.39 0,-5.09 0,-0.47 -0.09,-0.94 -0.28,-1.37l0 0zm-7.4 -10.2l1.95 -0.01 0 0c0.22,0 0.44,0.04 0.64,0.13 0.2,0.08 0.39,0.2 0.54,0.35 0.15,0.15 0.28,0.33 0.36,0.53 0.08,0.2 0.13,0.42 0.13,0.63l0 0 0.01 4.43 0 0c0,0.18 -0.04,0.36 -0.11,0.52 -0.07,0.17 -0.17,0.32 -0.3,0.45 -0.12,0.12 -0.28,0.22 -0.45,0.29 -0.16,0.07 -0.34,0.1 -0.53,0.1l0 0 -2.24 0.01 0 -7.43zm3.66 17.34c-0.06,0.16 -0.17,0.31 -0.3,0.44 -0.12,0.12 -0.28,0.23 -0.44,0.29 -0.17,0.07 -0.35,0.11 -0.53,0.11l0 0 -2.39 0 0 -8.76 2.09 -0.01 0 0c0.22,0 0.44,0.04 0.64,0.13 0.2,0.08 0.39,0.2 0.54,0.35 0.16,0.15 0.28,0.34 0.36,0.53 0.09,0.2 0.13,0.42 0.13,0.63l0 0 0.01 5.77 0 0c0,0.17 -0.04,0.35 -0.11,0.52l0 0z"/>
   </g>
  </g>
 </g>
</svg>
