<?xml version="1.0" encoding="UTF-8"?>
<!DOCTYPE svg PUBLIC "-//W3C//DTD SVG 1.1//EN" "http://www.w3.org/Graphics/SVG/1.1/DTD/svg11.dtd">
<!-- Creator: CorelDRAW 2019 (64 Bit) -->
<svg xmlns="http://www.w3.org/2000/svg" xml:space="preserve" width="48px" height="31px" version="1.1" style="shape-rendering:geometricPrecision; text-rendering:geometricPrecision; image-rendering:optimizeQuality; fill-rule:evenodd; clip-rule:evenodd"
viewBox="0 0 48 30.7"
 xmlns:xlink="http://www.w3.org/1999/xlink">
 <defs>
  <style type="text/css">
   <![CDATA[
    .fil1 {fill:#182848}
    .fil0 {fill:white}
   ]]>
  </style>
 </defs>
 <g id="Camada_x0020_1">
  <metadata id="CorelCorpID_0Corel-Layer"/>
  <g id="_1035026512">
   <rect class="fil0" width="48" height="30.7"/>
   <g>
    <path class="fil1" d="M5.36 16.89c0.19,0.14 0.41,0.24 0.63,0.31 0.23,0.07 0.46,0.11 0.69,0.11 0.24,0 0.47,-0.04 0.7,-0.11 0.22,-0.07 0.44,-0.17 0.64,-0.31 0.19,-0.14 0.37,-0.31 0.51,-0.5 0.14,-0.19 0.25,-0.41 0.32,-0.63 0.07,-0.22 0.11,-0.45 0.11,-0.68 0,-0.23 -0.04,-0.46 -0.11,-0.68 -0.07,-0.22 -0.18,-0.44 -0.32,-0.63 -0.14,-0.19 -0.32,-0.36 -0.51,-0.5 -0.2,-0.14 -0.42,-0.25 -0.64,-0.32 -0.23,-0.07 -0.46,-0.1 -0.7,-0.1 -0.23,0 -0.46,0.03 -0.69,0.1 -0.22,0.07 -0.44,0.18 -0.63,0.32 -0.2,0.14 -0.37,0.31 -0.51,0.5 -0.14,0.19 -0.25,0.41 -0.32,0.63 -0.07,0.22 -0.11,0.45 -0.11,0.68 0,0.23 0.03,0.46 0.11,0.68 0.07,0.22 0.18,0.43 0.32,0.63 0.14,0.19 0.31,0.36 0.51,0.5l0 0z"/>
    <polygon class="fil1" points="10.27,4.15 3.09,4.15 6.69,12.17 10.27,4.15 "/>
    <path class="fil1" d="M12.55 23.47c0,0.22 -0.04,0.43 -0.13,0.63 -0.08,0.2 -0.21,0.39 -0.36,0.54 -0.16,0.15 -0.34,0.28 -0.55,0.36 -0.2,0.08 -0.42,0.13 -0.64,0.13l-0.34 0 0 0c-0.22,0 -0.44,-0.05 -0.65,-0.13 -0.2,-0.08 -0.39,-0.21 -0.54,-0.36 -0.16,-0.15 -0.29,-0.34 -0.37,-0.54 -0.08,-0.2 -0.13,-0.41 -0.13,-0.63l0 0 0 -3.76 -3.89 0 0 2.83c0,0.58 0.12,1.16 0.34,1.69 0.23,0.53 0.56,1.02 0.98,1.43 0.41,0.41 0.91,0.74 1.45,0.96 0.54,0.22 1.13,0.33 1.72,0.33l2.4 0 0 0c0.58,0 1.17,-0.11 1.71,-0.33 0.55,-0.22 1.04,-0.55 1.46,-0.96 0.41,-0.41 0.74,-0.9 0.97,-1.43 0.22,-0.53 0.34,-1.11 0.34,-1.69l0 -18.37 -3.77 0 0 19.3 0 0z"/>
    <path class="fil1" d="M41.27 19.71l0 3.34 0 0c0,0.22 -0.05,0.43 -0.13,0.63 -0.09,0.2 -0.21,0.39 -0.37,0.54 -0.15,0.15 -0.34,0.28 -0.54,0.36 -0.21,0.08 -0.43,0.13 -0.65,0.13l-0.34 0 0 0c-0.22,0 -0.44,-0.05 -0.64,-0.13 -0.21,-0.08 -0.39,-0.21 -0.55,-0.36 -0.16,-0.15 -0.28,-0.34 -0.36,-0.54 -0.09,-0.2 -0.13,-0.41 -0.13,-0.63l0 0 0 -18.88 -3.77 0 0 22.31 11.11 0 0 -6.77 -3.63 0 0 0z"/>
    <path class="fil1" d="M30.65 16.37c-0.19,-0.44 -0.47,-0.84 -0.8,-1.16 -0.33,-0.32 -0.71,-0.55 -1.11,-0.7 0.34,-0.16 0.66,-0.38 0.94,-0.64 0.29,-0.27 0.54,-0.58 0.71,-0.94 0.17,-0.36 0.26,-0.75 0.26,-1.14l0 0 0 -4.07 0 0c0,-0.47 -0.1,-0.94 -0.28,-1.37 -0.18,-0.43 -0.45,-0.83 -0.79,-1.16 -0.33,-0.33 -0.74,-0.6 -1.18,-0.78 -0.44,-0.17 -0.91,-0.27 -1.39,-0.27l-7.5 0 0 22.34 7.78 0 0 0c0.48,0 0.96,-0.09 1.4,-0.27 0.44,-0.18 0.84,-0.45 1.18,-0.78 0.34,-0.33 0.6,-0.73 0.79,-1.16 0.18,-0.43 0.27,-0.9 0.27,-1.37 0,-1.71 0,-3.42 0,-5.14 0,-0.47 -0.09,-0.95 -0.28,-1.39l0 0zm-7.48 -10.3l1.97 -0.01 0 0c0.22,0 0.44,0.04 0.65,0.13 0.2,0.08 0.39,0.2 0.54,0.35 0.16,0.16 0.28,0.34 0.37,0.54 0.08,0.2 0.13,0.42 0.13,0.64l0 0 0.01 4.47 0 0c0,0.18 -0.04,0.37 -0.11,0.53 -0.07,0.17 -0.17,0.32 -0.3,0.45 -0.13,0.12 -0.29,0.23 -0.46,0.3 -0.16,0.06 -0.35,0.1 -0.53,0.1l0 0 -2.27 0.01 0 -7.51zm3.7 17.52c-0.07,0.16 -0.17,0.32 -0.3,0.44 -0.13,0.13 -0.28,0.23 -0.45,0.3 -0.17,0.07 -0.36,0.11 -0.54,0.11l0 0 -2.41 0 0 -8.85 2.12 -0.01 0 0c0.22,0 0.44,0.04 0.64,0.13 0.2,0.08 0.39,0.2 0.55,0.36 0.15,0.15 0.28,0.33 0.36,0.53 0.09,0.2 0.13,0.42 0.13,0.64l0 0 0.01 5.82 0 0c0,0.18 -0.04,0.36 -0.11,0.53l0 0z"/>
   </g>
  </g>
 </g>
</svg>
